<?xml version="1.0" standalone="no"?>
<!DOCTYPE svg PUBLIC "-//W3C//DTD SVG 20010904//EN"
 "http://www.w3.org/TR/2001/REC-SVG-20010904/DTD/svg10.dtd">
<svg version="1.0" xmlns="http://www.w3.org/2000/svg"
 width="600.000000pt" height="600.000000pt" viewBox="0 0 600.000000 600.000000"
 preserveAspectRatio="xMidYMid meet">

<g transform="translate(0.000000,600.000000) scale(0.100000,-0.100000)"
fill="#000000" stroke="none">
<path d="M2595 4504 c-202 -16 -492 -47 -552 -59 -84 -17 -137 -42 -174 -82
-42 -44 -55 -80 -84 -213 -14 -69 -28 -135 -31 -146 -5 -20 -14 -22 -107 -26
-161 -7 -187 -31 -187 -172 0 -64 -2 -72 -22 -81 -47 -20 -57 -66 -59 -255 -2
-196 5 -224 64 -260 39 -24 109 -26 147 -4 56 34 65 64 68 235 4 181 -4 225
-53 272 -32 31 -35 39 -35 91 l0 56 90 0 90 0 0 -907 c0 -626 4 -920 11 -948
16 -57 55 -104 105 -126 41 -19 81 -19 1141 -17 l1098 3 47 22 c31 14 56 36
75 64 l28 43 3 932 2 933 55 6 c30 4 66 4 80 1 23 -6 25 -10 25 -69 0 -52 -3
-64 -21 -75 -11 -7 -29 -32 -40 -55 -16 -36 -19 -66 -19 -205 0 -178 8 -213
55 -250 31 -25 84 -37 119 -28 33 8 85 54 98 85 14 36 12 355 -3 384 -6 12
-24 36 -39 52 -23 25 -28 42 -34 107 -10 136 -34 157 -184 165 l-97 6 -22 112
c-41 210 -89 288 -198 328 -49 18 -254 47 -475 67 -113 11 -868 21 -965 14z
m983 -246 c17 -17 15 -48 -5 -70 -15 -17 -46 -18 -570 -18 -540 0 -553 0 -573
20 -24 24 -24 29 -4 58 l15 22 563 0 c424 0 565 -3 574 -12z m515 -234 c9 -3
25 -20 35 -37 15 -29 17 -77 20 -469 l4 -438 -1146 0 -1146 0 0 446 c0 269 4
452 10 463 5 10 17 23 27 27 17 8 2067 24 2143 16 19 -2 43 -5 53 -8z m-2067
-1224 c104 -50 243 -147 288 -200 l25 -30 658 0 659 0 54 51 c73 68 157 124
244 164 71 32 185 77 187 72 0 -1 3 -41 5 -89 5 -68 2 -94 -11 -122 -32 -67
-144 -123 -308 -154 -82 -15 -169 -17 -797 -17 -756 0 -832 4 -980 51 -97 30
-167 75 -185 117 -9 23 -11 59 -8 125 l6 93 31 -6 c17 -4 77 -29 132 -55z
m1373 -507 c15 -29 24 -108 16 -152 -12 -74 7 -71 -408 -71 -205 0 -382 3
-394 6 -22 6 -23 11 -23 113 0 59 3 111 7 114 3 4 183 7 399 7 364 0 394 -1
403 -17z m-1167 -20 c22 -20 23 -41 1 -65 -14 -16 -32 -18 -137 -18 -67 0
-126 4 -132 8 -26 17 -34 48 -18 70 14 21 23 22 141 22 104 0 130 -3 145 -17z
m1816 5 c17 -17 15 -48 -5 -70 -14 -15 -32 -18 -132 -18 -89 0 -122 4 -139 16
-26 18 -28 41 -5 66 14 16 33 18 143 18 85 0 130 -4 138 -12z"/>
<path d="M1917 1764 c-4 -4 -7 -46 -7 -93 0 -97 18 -147 60 -168 16 -8 73 -13
161 -13 122 0 139 2 162 21 36 27 49 79 45 174 l-3 80 -206 3 c-113 1 -208 -1
-212 -4z"/>
<path d="M3662 1662 c5 -111 16 -138 63 -158 40 -16 259 -20 299 -4 47 17 73
110 60 209 l-7 51 -210 0 -210 0 5 -98z"/>
</g>
</svg>
