<svg version="1.1" id="Layer_1" xmlns="http://www.w3.org/2000/svg" xmlns:xlink="http://www.w3.org/1999/xlink" x="0px" y="0px"
	 width="100%" viewBox="0 0 200 200" enable-background="new 0 0 200 200" xml:space="preserve">
<path fill="#05AC6B" opacity="1.000000" stroke="none" 
	d="
M116.000000,201.000000 
	C106.312439,201.000000 96.624878,201.000000 86.334702,200.638885 
	C79.986542,198.742172 74.134842,197.519913 68.514282,195.615479 
	C46.874298,188.283096 30.090332,174.540176 17.038944,155.667374 
	C16.732504,155.102020 16.463118,154.830933 16.165144,154.388641 
	C16.136557,154.217438 15.866621,153.999146 15.860752,153.739777 
	C15.597507,153.266174 15.340130,153.051956 15.034374,152.565002 
	C14.648123,151.864548 14.310249,151.436829 13.960701,150.711578 
	C13.687647,150.131943 13.426268,149.849838 13.156439,149.403076 
	C13.147989,149.238388 12.908917,149.011200 12.913786,148.745575 
	C12.677999,148.241501 12.437344,148.003036 12.188140,147.803925 
	C12.179591,147.843262 12.259542,147.852875 12.228880,147.537567 
	C11.846456,146.722916 11.494695,146.223602 11.128014,145.528397 
	C11.113092,145.332520 10.875733,145.019455 10.860433,144.671738 
	C10.002485,142.670120 9.159839,141.016220 8.289295,139.122406 
	C8.170837,138.568420 8.022821,138.284256 7.811148,137.657867 
	C6.619121,134.021622 5.433294,130.757553 4.246173,127.228065 
	C4.117685,126.634415 3.990491,126.306168 3.914405,125.655685 
	C3.706290,124.759178 3.447065,124.184921 3.203811,123.333145 
	C3.115597,122.701439 3.011412,122.347260 2.930910,121.722458 
	C2.660513,121.258812 2.366431,121.065788 2.039731,120.520172 
	C1.671408,119.445061 1.335703,118.722527 0.999999,118.000000 
	C1.000000,106.645775 1.000000,95.291542 1.365374,83.359146 
	C2.759272,79.697784 3.823823,76.626076 4.810845,73.529655 
	C16.992779,35.313297 42.632656,11.770645 81.743843,2.855381 
	C83.226501,2.517413 84.584114,1.630897 86.000000,1.000001 
	C96.354225,1.000000 106.708458,1.000000 117.583931,1.323645 
	C119.076836,2.063826 120.048485,2.480362 121.363419,3.024460 
	C123.134537,3.413270 124.562378,3.674519 126.016983,3.974517 
	C126.043739,4.013267 126.121330,3.959892 126.404243,4.173001 
	C128.784729,4.910712 130.882294,5.435313 133.135925,6.071378 
	C133.291977,6.182841 133.675323,6.194526 133.883667,6.448665 
	C134.725357,6.818060 135.358719,6.933316 136.109711,7.151111 
	C136.227341,7.253649 136.538315,7.227302 136.704102,7.468704 
	C137.244720,7.769323 137.619522,7.828540 138.173325,7.999547 
	C138.352310,8.111339 138.773651,8.135482 138.963409,8.388191 
	C139.757690,8.781583 140.362198,8.922265 140.974701,9.030160 
	C140.982697,8.997374 140.942947,9.052435 141.114578,9.298382 
	C141.847321,9.693755 142.408432,9.843182 143.092957,10.109277 
	C143.216370,10.225945 143.555008,10.252417 143.755676,10.516911 
	C144.974045,11.176152 145.991745,11.570900 147.111755,12.083513 
	C147.214081,12.201378 147.525421,12.224071 147.695923,12.470390 
	C148.246796,12.807677 148.627182,12.898644 149.003784,12.994825 
	C149.000000,13.000038 149.009033,12.990269 149.173279,13.237263 
	C149.881165,13.682210 150.424820,13.880162 150.973877,14.045132 
	C150.979279,14.012149 150.923233,14.048577 151.015732,14.278324 
	C151.341690,14.800392 151.639587,14.899926 152.161087,14.941454 
	C152.320282,15.076235 152.731400,15.147087 152.858215,15.393232 
	C153.325943,15.745323 153.666885,15.851269 154.225525,16.214399 
	C178.699081,32.443607 193.874557,54.514412 199.323761,83.156639 
	C199.578506,84.495598 200.427673,85.721466 201.000000,87.000000 
	C201.000000,96.687561 201.000000,106.375122 200.620316,116.587616 
	C199.895416,117.848839 199.397842,118.551498 199.226837,119.326241 
	C190.032532,160.979202 164.728027,187.217911 123.664520,198.433411 
	C121.069588,199.142151 118.553017,200.137802 116.000000,201.000000 
M145.500275,143.011505 
	C141.422546,137.689865 137.344818,132.368225 133.153976,126.898979 
	C135.370499,125.259712 136.550308,124.365677 137.751770,123.501747 
	C162.219879,105.907562 165.089523,69.493080 143.688766,48.128361 
	C125.894310,30.363863 94.584190,28.442656 72.359535,44.000080 
	C67.376106,47.488518 62.969692,51.801239 58.293560,55.737911 
	C54.641159,52.245228 51.056217,48.529888 47.170906,45.160950 
	C38.879955,37.971878 38.896725,38.112473 31.770332,46.677578 
	C29.430193,49.490162 29.565504,51.183884 32.465744,53.598553 
	C37.435535,57.736282 41.937908,62.432911 46.676899,66.851578 
	C48.627293,68.670143 48.910854,70.281105 47.574902,72.891983 
	C38.485668,90.655235 34.455872,109.452309 37.011917,129.406174 
	C38.374454,140.042862 40.761238,150.449509 46.973862,159.428299 
	C56.088570,172.601334 72.033249,171.274979 78.826340,156.847000 
	C80.228729,153.868423 81.400841,150.631973 81.878685,147.396179 
	C83.198135,138.461349 84.094009,129.463974 85.131287,120.711464 
	C92.731018,128.942841 94.259636,130.052231 101.976654,131.164551 
	C105.908577,131.731293 109.970116,132.202545 113.888657,131.829742 
	C117.715622,131.465668 119.349098,132.877991 121.093445,136.080582 
	C126.973618,146.876572 134.293945,156.546967 145.478912,162.457489 
	C153.704285,166.804092 162.541763,167.805267 173.236420,167.050079 
	C164.855255,160.359619 162.050674,150.018753 151.539688,147.660294 
	C149.481598,147.198502 147.820953,144.965332 145.500275,143.011505 
z"/>
<path fill="#FAFEFD" opacity="1.000000" stroke="none" 
	d="
M116.468658,201.000000 
	C118.553017,200.137802 121.069588,199.142151 123.664520,198.433411 
	C164.728027,187.217911 190.032532,160.979202 199.226837,119.326241 
	C199.397842,118.551498 199.895416,117.848839 200.620316,117.056274 
	C201.000000,144.927322 201.000000,172.854660 201.000000,201.000000 
	C172.979477,201.000000 144.958405,201.000000 116.468658,201.000000 
z"/>
<path fill="#FAFEFD" opacity="1.000000" stroke="none" 
	d="
M85.531342,1.000001 
	C84.584114,1.630897 83.226501,2.517413 81.743843,2.855381 
	C42.632656,11.770645 16.992779,35.313297 4.810845,73.529655 
	C3.823823,76.626076 2.759272,79.697784 1.365374,82.890488 
	C1.000000,55.738461 1.000000,28.476917 1.000000,1.000000 
	C29.020527,1.000000 57.041603,1.000000 85.531342,1.000001 
z"/>
<path fill="#FCFEFE" opacity="1.000000" stroke="none" 
	d="
M138.773651,8.135482 
	C138.773651,8.135482 138.352310,8.111339 137.964600,7.821028 
	C137.230682,7.429578 136.884506,7.328440 136.538315,7.227302 
	C136.538315,7.227302 136.227341,7.253649 135.868256,6.937923 
	C134.897873,6.479640 134.286606,6.337082 133.675323,6.194525 
	C133.675323,6.194526 133.291977,6.182841 132.920593,5.780381 
	C130.406586,4.905244 128.263962,4.432567 126.121330,3.959891 
	C126.121330,3.959892 126.043739,4.013267 125.797501,3.747744 
	C124.040886,3.287113 122.530518,3.092006 121.020142,2.896898 
	C120.048485,2.480362 119.076836,2.063826 118.052589,1.323645 
	C145.594864,1.000000 173.189728,1.000000 201.000000,1.000000 
	C201.000000,29.353865 201.000000,57.708275 201.000000,86.531342 
	C200.427673,85.721466 199.578506,84.495598 199.323761,83.156639 
	C193.874557,54.514412 178.699081,32.443607 154.059875,16.012152 
	C153.361481,15.417508 153.046432,15.282297 152.731400,15.147087 
	C152.731400,15.147087 152.320282,15.076235 152.038300,14.744007 
	C151.531693,14.169003 151.253998,14.047936 150.923233,14.048577 
	C150.923233,14.048577 150.979279,14.012149 150.799042,13.806276 
	C150.082214,13.397025 149.545624,13.193647 149.009033,12.990269 
	C149.009033,12.990269 149.000000,13.000038 148.801178,12.790115 
	C148.243362,12.461485 147.884399,12.342777 147.525421,12.224070 
	C147.525421,12.224071 147.214081,12.201378 146.972443,11.758526 
	C145.672211,10.961256 144.613602,10.606837 143.555008,10.252418 
	C143.555008,10.252417 143.216370,10.225945 142.894440,9.894651 
	C142.029327,9.393050 141.486145,9.222743 140.942947,9.052435 
	C140.942947,9.052435 140.982697,8.997374 140.757507,8.805558 
	C139.946091,8.454323 139.359879,8.294902 138.773651,8.135482 
z"/>
<path fill="#FCFEFE" opacity="1.000000" stroke="none" 
	d="
M10.875734,145.019455 
	C10.875733,145.019455 11.113092,145.332520 11.141304,145.846542 
	C11.532859,146.858002 11.896201,147.355438 12.259542,147.852875 
	C12.259542,147.852875 12.179591,147.843262 12.231092,148.048584 
	C12.415152,148.569366 12.623926,148.821793 12.908917,149.011200 
	C12.908917,149.011200 13.147989,149.238388 13.212547,149.681854 
	C13.508860,150.419937 13.740615,150.714523 13.972372,151.009125 
	C14.310249,151.436829 14.648123,151.864548 15.092957,152.800461 
	C15.349092,153.609360 15.571325,153.839523 15.866621,153.999146 
	C15.866621,153.999146 16.136557,154.217438 16.234402,154.665039 
	C16.580166,155.395630 16.828081,155.678635 17.075998,155.961639 
	C30.090332,174.540176 46.874298,188.283096 68.514282,195.615479 
	C74.134842,197.519913 79.986542,198.742172 85.866043,200.638885 
	C57.740635,201.000000 29.481272,201.000000 1.000000,201.000000 
	C1.000000,173.646179 1.000000,146.291748 0.999999,118.468658 
	C1.335703,118.722527 1.671408,119.445061 2.133189,120.737228 
	C2.438795,121.570030 2.654782,121.798759 2.907227,121.993073 
	C3.011412,122.347260 3.115597,122.701439 3.163554,123.653191 
	C3.359315,124.826477 3.611305,125.402199 3.863296,125.977921 
	C3.990491,126.306168 4.117685,126.634415 4.172677,127.660568 
	C5.339432,131.582321 6.578390,134.806183 7.817348,138.030029 
	C8.022821,138.284256 8.170837,138.568420 8.223745,139.514954 
	C9.082640,141.771423 9.979187,143.395447 10.875734,145.019455 
z"/>
<path fill="#F5FDFB" opacity="1.000000" stroke="none" 
	d="
M145.738647,143.280334 
	C147.820953,144.965332 149.481598,147.198502 151.539688,147.660294 
	C162.050674,150.018753 164.855255,160.359619 173.236420,167.050079 
	C162.541763,167.805267 153.704285,166.804092 145.478912,162.457489 
	C134.293945,156.546967 126.973618,146.876572 121.093445,136.080582 
	C119.349098,132.877991 117.715622,131.465668 113.888657,131.829742 
	C109.970116,132.202545 105.908577,131.731293 101.976654,131.164551 
	C94.259636,130.052231 92.731018,128.942841 85.131287,120.711464 
	C84.094009,129.463974 83.198135,138.461349 81.878685,147.396179 
	C81.400841,150.631973 80.228729,153.868423 78.826340,156.847000 
	C72.033249,171.274979 56.088570,172.601334 46.973862,159.428299 
	C40.761238,150.449509 38.374454,140.042862 37.011917,129.406174 
	C34.455872,109.452309 38.485668,90.655235 47.574902,72.891983 
	C48.910854,70.281105 48.627293,68.670143 46.676899,66.851578 
	C41.937908,62.432911 37.435535,57.736282 32.465744,53.598553 
	C29.565504,51.183884 29.430193,49.490162 31.770332,46.677578 
	C38.896725,38.112473 38.879955,37.971878 47.170906,45.160950 
	C51.056217,48.529888 54.641159,52.245228 58.293560,55.737911 
	C62.969692,51.801239 67.376106,47.488518 72.359535,44.000080 
	C94.584190,28.442656 125.894310,30.363863 143.688766,48.128361 
	C165.089523,69.493080 162.219879,105.907562 137.751770,123.501747 
	C136.550308,124.365677 135.370499,125.259712 133.153976,126.898979 
	C137.344818,132.368225 141.422546,137.689865 145.738647,143.280334 
M118.278870,50.989185 
	C98.923836,45.781162 83.317726,51.841755 70.519958,66.695084 
	C68.662766,68.850563 68.935844,70.352890 70.037407,72.812927 
	C74.165665,82.032272 77.871559,91.440758 81.733551,100.779259 
	C82.155792,101.800255 82.563644,102.827209 83.090454,104.128822 
	C83.829422,103.119011 84.290001,102.489372 84.750862,101.859940 
	C95.873161,86.669090 112.650414,87.603630 122.229736,103.959129 
	C123.709885,106.486298 125.113503,109.058289 126.690765,111.854645 
	C139.019958,104.191765 143.272995,93.030968 141.974640,79.650200 
	C140.589249,65.372414 132.889236,55.688988 118.278870,50.989185 
M51.858814,99.485962 
	C48.101982,116.201462 48.754021,132.608673 56.051533,148.296570 
	C57.298759,150.977798 60.432659,152.781418 62.694984,154.990463 
	C64.529640,152.418030 67.201065,150.095016 68.055023,147.230240 
	C71.882744,134.389359 71.668137,121.314278 69.504890,108.150291 
	C67.896927,98.365265 64.379387,89.449089 58.481094,79.542641 
	C56.000359,86.864487 54.001579,92.763863 51.858814,99.485962 
M113.666672,116.135971 
	C111.872169,113.145035 110.598389,109.569656 108.112457,107.354759 
	C106.245369,105.691223 102.648636,104.905289 100.152710,105.399445 
	C98.588104,105.709213 96.309402,109.450790 96.716438,111.050903 
	C97.346069,113.526085 99.588547,116.383598 101.896706,117.437965 
	C104.763596,118.747551 108.388908,118.507065 111.698982,118.649567 
	C112.419792,118.680595 113.192833,117.498436 113.666672,116.135971 
z"/>
<path fill="#D8FBF1" opacity="1.000000" stroke="none" 
	d="
M7.811148,137.657867 
	C6.578390,134.806183 5.339432,131.582321 4.173971,127.925972 
	C5.433294,130.757553 6.619121,134.021622 7.811148,137.657867 
z"/>
<path fill="#D2F9EE" opacity="1.000000" stroke="none" 
	d="
M126.404243,4.173001 
	C128.263962,4.432567 130.406586,4.905244 132.764542,5.668918 
	C130.882294,5.435313 128.784729,4.910712 126.404243,4.173001 
z"/>
<path fill="#D8FBF1" opacity="1.000000" stroke="none" 
	d="
M10.860434,144.671738 
	C9.979187,143.395447 9.082640,141.771423 8.251642,139.754868 
	C9.159839,141.016220 10.002485,142.670120 10.860434,144.671738 
z"/>
<path fill="#D2F9EE" opacity="1.000000" stroke="none" 
	d="
M121.363419,3.024460 
	C122.530518,3.092006 124.040886,3.287113 125.770744,3.708994 
	C124.562378,3.674519 123.134537,3.413270 121.363419,3.024460 
z"/>
<path fill="#D2F9EE" opacity="1.000000" stroke="none" 
	d="
M143.755676,10.516912 
	C144.613602,10.606837 145.672211,10.961256 146.870117,11.640661 
	C145.991745,11.570900 144.974045,11.176152 143.755676,10.516912 
z"/>
<path fill="#D2F9EE" opacity="1.000000" stroke="none" 
	d="
M149.173279,13.237263 
	C149.545624,13.193647 150.082214,13.397025 150.793640,13.839258 
	C150.424820,13.880162 149.881165,13.682210 149.173279,13.237263 
z"/>
<path fill="#D2F9EE" opacity="1.000000" stroke="none" 
	d="
M141.114578,9.298382 
	C141.486145,9.222743 142.029327,9.393050 142.771027,9.777983 
	C142.408432,9.843182 141.847321,9.693755 141.114578,9.298382 
z"/>
<path fill="#D8FBF1" opacity="1.000000" stroke="none" 
	d="
M12.228881,147.537567 
	C11.896201,147.355438 11.532859,146.858002 11.156225,146.042419 
	C11.494695,146.223602 11.846456,146.722916 12.228881,147.537567 
z"/>
<path fill="#D8FBF1" opacity="1.000000" stroke="none" 
	d="
M3.914404,125.655685 
	C3.611305,125.402199 3.359315,124.826477 3.147583,123.930710 
	C3.447065,124.184921 3.706290,124.759178 3.914404,125.655685 
z"/>
<path fill="#D2F9EE" opacity="1.000000" stroke="none" 
	d="
M138.963409,8.388191 
	C139.359879,8.294902 139.946091,8.454323 140.749512,8.838345 
	C140.362198,8.922265 139.757690,8.781583 138.963409,8.388191 
z"/>
<path fill="#D2F9EE" opacity="1.000000" stroke="none" 
	d="
M133.883667,6.448664 
	C134.286606,6.337082 134.897873,6.479640 135.750610,6.835385 
	C135.358719,6.933316 134.725357,6.818060 133.883667,6.448664 
z"/>
<path fill="#D8FBF1" opacity="1.000000" stroke="none" 
	d="
M13.960697,150.711578 
	C13.740615,150.714523 13.508860,150.419937 13.220997,149.846542 
	C13.426268,149.849838 13.687647,150.131943 13.960697,150.711578 
z"/>
<path fill="#D8FBF1" opacity="1.000000" stroke="none" 
	d="
M12.913786,148.745575 
	C12.623926,148.821793 12.415152,148.569366 12.239641,148.009247 
	C12.437344,148.003036 12.677999,148.241501 12.913786,148.745575 
z"/>
<path fill="#D8FBF1" opacity="1.000000" stroke="none" 
	d="
M17.038944,155.667374 
	C16.828081,155.678635 16.580166,155.395630 16.262989,154.836243 
	C16.463118,154.830933 16.732504,155.102020 17.038944,155.667374 
z"/>
<path fill="#D8FBF1" opacity="1.000000" stroke="none" 
	d="
M15.860752,153.739777 
	C15.571325,153.839523 15.349092,153.609360 15.141336,153.073196 
	C15.340130,153.051956 15.597507,153.266174 15.860752,153.739777 
z"/>
<path fill="#D8FBF1" opacity="1.000000" stroke="none" 
	d="
M2.930911,121.722458 
	C2.654782,121.798759 2.438795,121.570030 2.165808,121.089813 
	C2.366431,121.065788 2.660513,121.258812 2.930911,121.722458 
z"/>
<path fill="#D2F9EE" opacity="1.000000" stroke="none" 
	d="
M152.858215,15.393232 
	C153.046432,15.282297 153.361481,15.417508 153.842163,15.754966 
	C153.666885,15.851269 153.325943,15.745323 152.858215,15.393232 
z"/>
<path fill="#D2F9EE" opacity="1.000000" stroke="none" 
	d="
M151.015732,14.278324 
	C151.253998,14.047936 151.531693,14.169003 151.879089,14.609226 
	C151.639587,14.899926 151.341690,14.800392 151.015732,14.278324 
z"/>
<path fill="#D2F9EE" opacity="1.000000" stroke="none" 
	d="
M147.695923,12.470390 
	C147.884399,12.342777 148.243362,12.461485 148.804962,12.784903 
	C148.627182,12.898644 148.246796,12.807677 147.695923,12.470390 
z"/>
<path fill="#D2F9EE" opacity="1.000000" stroke="none" 
	d="
M136.704102,7.468704 
	C136.884506,7.328440 137.230682,7.429578 137.785614,7.709236 
	C137.619522,7.828540 137.244720,7.769323 136.704102,7.468704 
z"/>
<path fill="#06AC6C" opacity="1.000000" stroke="none" 
	d="
M118.675018,51.077671 
	C132.889236,55.688988 140.589249,65.372414 141.974640,79.650200 
	C143.272995,93.030968 139.019958,104.191765 126.690765,111.854645 
	C125.113503,109.058289 123.709885,106.486298 122.229736,103.959129 
	C112.650414,87.603630 95.873161,86.669090 84.750862,101.859940 
	C84.290001,102.489372 83.829422,103.119011 83.090454,104.128822 
	C82.563644,102.827209 82.155792,101.800255 81.733551,100.779259 
	C77.871559,91.440758 74.165665,82.032272 70.037407,72.812927 
	C68.935844,70.352890 68.662766,68.850563 70.519958,66.695084 
	C83.317726,51.841755 98.923836,45.781162 118.675018,51.077671 
z"/>
<path fill="#09AB6D" opacity="1.000000" stroke="none" 
	d="
M51.930809,99.074600 
	C54.001579,92.763863 56.000359,86.864487 58.481094,79.542641 
	C64.379387,89.449089 67.896927,98.365265 69.504890,108.150291 
	C71.668137,121.314278 71.882744,134.389359 68.055023,147.230240 
	C67.201065,150.095016 64.529640,152.418030 62.694984,154.990463 
	C60.432659,152.781418 57.298759,150.977798 56.051533,148.296570 
	C48.754021,132.608673 48.101982,116.201462 51.930809,99.074600 
z"/>
<path fill="#15AB72" opacity="1.000000" stroke="none" 
	d="
M113.804245,116.505501 
	C113.192833,117.498436 112.419792,118.680595 111.698982,118.649567 
	C108.388908,118.507065 104.763596,118.747551 101.896706,117.437965 
	C99.588547,116.383598 97.346069,113.526085 96.716438,111.050903 
	C96.309402,109.450790 98.588104,105.709213 100.152710,105.399445 
	C102.648636,104.905289 106.245369,105.691223 108.112457,107.354759 
	C110.598389,109.569656 111.872169,113.145035 113.804245,116.505501 
z"/>
</svg>